<?xml version="1.0" encoding="UTF-8" standalone="no"?>
<!-- Created with Inkscape (http://www.inkscape.org/) -->

<svg
   xmlns:dc="http://purl.org/dc/elements/1.1/"
   xmlns:cc="http://creativecommons.org/ns#"
   xmlns:rdf="http://www.w3.org/1999/02/22-rdf-syntax-ns#"
   xmlns:svg="http://www.w3.org/2000/svg"
   xmlns="http://www.w3.org/2000/svg"
   xmlns:sodipodi="http://sodipodi.sourceforge.net/DTD/sodipodi-0.dtd"
   xmlns:inkscape="http://www.inkscape.org/namespaces/inkscape"
   width="1024"
   height="1024"
   id="svg2"
   version="1.1"
   inkscape:version="0.48.3.1 r9886"
   sodipodi:docname="icons.svg">
  <defs
     id="defs4">
    <inkscape:perspective
       sodipodi:type="inkscape:persp3d"
       inkscape:vp_x="11.188912 : 224.2179 : 1"
       inkscape:vp_y="0 : 799.69681 : 0"
       inkscape:vp_z="511.18891 : 224.2179 : 1"
       inkscape:persp3d-origin="261.18891 : 157.57651 : 1"
       id="perspective3002" />
    <font
       horiz-adv-x="1024"
       id="font2991"
       inkscape:label="font 1"
       horiz-origin-x="0"
       horiz-origin-y="0"
       vert-origin-x="45"
       vert-origin-y="90"
       vert-adv-y="90">
      <font-face
         units-per-em="1024"
         id="font-face2993"
         font-family="icons" />
      <missing-glyph
         d="M0,0h1000v1024h-1000z"
         id="missing-glyph2995" />
      <glyph
         glyph-name="cogs"
         id="glyph3018"
         unicode="a"
         d="m 594.0274,935.16708 c -1.92558,-0.0131 -3.98931,-0.1663 -6.15037,-0.43931 -69.1535,-8.73629 16.47027,-119.26144 -47.41422,-147.0751 -63.8845,-27.81368 -86.95138,109.9696 -140.39129,65.33185 C 346.6316,808.34675 478.58928,761.52704 439.92331,703.68148 401.25735,645.8359 307.20635,749.30677 286.44682,682.93972 265.68729,616.57265 402.05866,648.33488 400.88738,578.82297 399.7161,509.31108 264.48323,545.65393 282.9951,478.62865 c 18.51185,-67.0253 115.99672,33.22071 152.692,-25.88799 36.69528,-59.10869 -96.74698,-101.45611 -44.84112,-147.85957 51.90587,-46.40348 79.61375,90.50107 142.52509,60.56217 62.91136,-29.9389 -26.39522,-137.56382 42.42491,-148.61269 68.82014,-11.04887 17.86147,119.07189 87.01498,127.80817 69.15352,8.73628 52.3447,-129.92214 116.22919,-102.10846 63.88449,27.81366 -49.48612,109.78011 3.9538,154.41787 53.43993,44.63776 114.49673,-81.03492 153.1627,-23.18936 38.66597,57.84556 -101.18485,65.67732 -80.42532,132.04439 20.75953,66.36707 140.25549,-6.47075 141.42677,63.04115 1.17128,69.5119 -120.68698,0.69138 -139.19884,67.71668 -18.51186,67.0253 121.48234,70.1743 84.78706,129.28299 -36.69528,59.10871 -101.9158,-64.47798 -153.82167,-18.07451 -51.90586,46.40347 64.16652,124.5731 1.25518,154.51201 -62.91136,29.9389 -50.79803,-109.23491 -119.61816,-98.18604 -66.6695,10.70359 -16.84127,131.47661 -76.53427,131.07162 z m 45.18629,-263.05325 c 53.26049,0 96.46017,-43.16828 96.46017,-96.4288 0,-53.2605 -43.19968,-96.4288 -96.46017,-96.4288 -53.26052,0 -96.42881,43.1683 -96.42881,96.4288 0,53.26052 43.16829,96.4288 96.42881,96.4288 z M 216.18842,332.49493 c -0.91305,-0.006 -1.86221,-0.0588 -2.8869,-0.18828 -32.79029,-4.14246 7.79288,-56.56802 -22.49901,-69.75634 -30.2919,-13.18831 -41.21622,52.13718 -66.55564,30.97144 C 98.907438,272.35602 161.47135,250.15834 143.13725,222.7299 124.80313,195.30146 80.211972,244.37719 70.368489,212.90815 60.525016,181.4391 125.1788,196.47725 124.62342,163.51703 124.06804,130.55682 59.92768,147.78984 68.705383,116.00866 77.483093,84.22752 123.72928,131.76672 141.12897,103.73933 158.52864,75.71198 95.241725,55.64077 119.85375,33.6378 144.46578,11.6347 157.61444,76.54597 187.44491,62.34994 217.27538,48.15392 174.92688,-2.8578 207.55909,-8.0967 c 32.6322,-5.239 8.47359,56.45107 41.26387,60.59352 32.79029,4.14244 24.81028,-61.60672 55.10217,-48.41832 30.29187,13.1882 -23.45667,52.04231 1.88276,73.20802 25.33947,21.16574 54.27777,-38.41122 72.61186,-10.98278 18.33409,27.42844 -47.96941,31.13277 -38.12593,62.60185 9.84348,31.46903 66.50234,-3.05567 67.0577,29.90453 0.55538,32.96022 -57.2131,0.31993 -65.9908,32.1011 -8.77773,31.78116 57.59669,33.2879 40.19697,61.31528 -17.39964,28.02737 -48.34499,-30.60092 -72.95703,-8.59795 -24.61203,22.00298 30.42666,59.0748 0.59621,73.27083 -29.83045,14.19602 -24.07032,-51.80598 -56.70253,-46.56698 -31.61245,5.07529 -8.0015,62.35455 -36.30592,62.16253 z m 21.43211,-124.733 c 25.25434,0 45.75111,-20.46537 45.75111,-45.71973 0,-25.25435 -20.49677,-45.71975 -45.75111,-45.71975 -25.25436,0 -45.71975,20.4654 -45.71975,45.71975 0,25.25436 20.46539,45.71973 45.71975,45.71973 z" />
      <glyph
         glyph-name="posts"
         id="glyph3258"
         unicode="b"
         d="m 267.53125,959.59375 c -33.24,0 -60,-26.76 -60,-60 L 207.53125,870 102,870 C 68.76,870 42,843.24 42,810 L 42,80 C 42,46.76 68.76,20 102,20 l 600,0 c 33.24,0 60,26.76 60,60 l 0,29.59375 105.53125,0 c 33.24,0 60,26.76 60,60 l 0,730 c 0,33.24 -26.76,60 -60,60 l -600,0 z m 52.9375,-75 494.125,0 C 841.96787,884.59375 864,862.56162 864,835.1875 L 864,234 c 0,-27.37412 -22.03213,-49.40625 -49.40625,-49.40625 L 762,184.59375 762,810 c 0,33.24 -26.76,60 -60,60 l -416.65625,0 c 8.94167,9.02202 21.35806,14.59375 35.125,14.59375 z M 154.9375,795 l 494.125,0 c 27.37412,0 49.40625,-22.03213 49.40625,-49.40625 l 0,-601.1875 C 698.46875,117.03213 676.43662,95 649.0625,95 l -494.125,0 c -27.37412,0 -49.40625,22.03213 -49.40625,49.40625 l 0,601.1875 C 105.53125,772.96787 127.56338,795 154.9375,795 z M 227,698 l 0,-48.8125 350,0 0,48.8125 -350,0 z m 0,-146.40625 0,-48.78125 350,0 0,48.78125 -350,0 z m 0,-146.40625 0,-48.78125 350,0 0,48.78125 -350,0 z m 0,-146.375 0,-48.8125 266,0 0,48.8125 -266,0 z" />
      <glyph
         glyph-name="common"
         id="glyph3444"
         unicode="c"
         d="m 175.21184,996 c -22.12272,0 -39.93264,-19.95263 -39.93264,-44.73684 l 0,-760.52632 C 135.2792,165.95263 153.08912,146 175.21184,146 l 638.92281,0 c 22.12273,0 39.93273,19.95263 39.93273,44.73684 l 0,760.52632 c 0,24.78421 -17.81,44.73684 -39.93273,44.73684 l -638.92281,0 z m 33.61831,-44.73684 571.6862,0 c 19.79399,0 35.71485,-17.86413 35.71485,-40.03948 l 0,-680.44736 c 0,-22.17535 -15.92086,-40.03948 -35.71485,-40.03948 l -571.6862,0 c -19.794,0 -35.71477,17.86413 -35.71477,40.03948 l 0,680.44736 c 0,22.17535 15.92077,40.03948 35.71477,40.03948 z" />
      <glyph
         glyph-name="new-post"
         id="glyph3483"
         unicode="d"
         d="m 200,870 c -33.24,0 -60,-26.76 -60,-60 l 0,-730 c 0,-33.24 26.76,-60 60,-60 l 600,0 c 33.24,0 60,26.76 60,60 l 0,730 c 0,33.24 -26.76,60 -60,60 l -600,0 z m 52.9375,-75 494.125,0 c 27.3741,0 49.40625,-22.03213 49.40625,-49.40625 l 0,-601.1875 C 796.46875,117.03215 774.4366,95 747.0625,95 l -494.125,0 c -27.37412,0 -49.40625,22.03215 -49.40625,49.40625 l 0,601.1875 C 203.53125,772.96787 225.56338,795 252.9375,795 z M 322,682 l 0,-120 50,0 0,120 -50,0 z" />
      <glyph
         glyph-name="images"
         id="glyph3661"
         unicode="e"
         d="m 300,960 c -33.24,0 -60,-26.76 -60,-60 l 0,-29.59375 -105.53125,0 c -33.24,0 -60,-26.76 -60,-60 l 0,-730 c 0,-33.24 26.76,-59.99995 60,-59.99995 l 600,0 c 33.24,0 60,26.75995 60,59.99995 l 0,29.59375 L 900,110 c 33.24,0 60,26.76 60,60 l 0,730 c 0,33.24 -26.76,60 -60,60 l -600,0 z m 52.9375,-75 494.125,0 c 27.37412,0 49.40625,-22.03213 49.40625,-49.40625 l 0,-601.1875 C 896.46875,207.03213 874.43662,185 847.0625,185 l -52.59375,0 0,625.40625 c 0,33.24 -26.76,60 -60,60 l -416.65625,0 C 326.75417,879.42827 339.17056,885 352.9375,885 z m -165.53125,-89.59375 494.125,0 c 27.37412,0 49.40625,-22.03213 49.40625,-49.40625 l 0,-601.1875 c 0,-27.37412 -22.03213,-49.40625 -49.40625,-49.40625 l -494.125,0 C 160.03213,95.40625 138,117.43838 138,144.8125 L 138,746 c 0,27.37412 22.03213,49.40625 49.40625,49.40625 z m 107.25,-151.5625 c -13.74432,0 -24.8125,-10.06767 -24.8125,-22.5625 l 0,-11.28125 -24.8125,0 c -24.98967,0 -45.125,-20.10409 -45.125,-45.09375 l 0,-67.6875 217.125,0 c 10.01223,38.91437 45.3355,67.6875 87.375,67.6875 42.03949,0 77.33152,-28.77313 87.34375,-67.6875 l 70.53125,0 0,67.6875 c 0,24.98966 -20.13534,45.09375 -45.125,45.09375 l -234.5625,0 0,11.28125 c 0,12.49483 -11.06819,22.5625 -24.8125,22.5625 l -63.125,0 z m 209.75,-112.78125 C 473.26588,531.0625 448,505.82787 448,474.6875 c 0,-31.14036 25.26588,-56.40625 56.40625,-56.40625 31.14036,0 56.375,25.26589 56.375,56.40625 0,31.14037 -25.23464,56.375 -56.375,56.375 z m -304.5,-78.9375 0,-90.21875 c 0,-24.98966 20.13533,-45.09375 45.125,-45.09375 l 372.125,0 c 24.98966,0 45.125,20.10409 45.125,45.09375 l 0,90.21875 -70.53125,0 c -10.01223,-38.91438 -45.30426,-67.65625 -87.34375,-67.65625 -42.0395,0 -77.36277,28.74187 -87.375,67.65625 l -217.125,0 z" />
      <glyph
         glyph-name="logs"
         id="glyph4690"
         unicode="f"
         d="m 500,864 c -165.68542,0 -300,-44.77152 -300,-100 0,-55.22847 134.31458,-100 300,-100 165.68542,0 300,44.77153 300,100 0,55.22848 -134.31458,100 -300,100 z M 150,756.03125 150,171.125 c 0,0 0,-145.1562 350,-145.1562 350,0 350,145.1562 350,145.1562 l 0,584.90625 C 850,756.03125 850,610 500,610 150,610 150,756.03125 150,756.03125 z m 242.21875,-219.8125 c 0.7842,0.003 1.50955,-0.14678 2.28125,-0.46875 l 25.5625,-10.625 c 2.9641,-1.23677 4.37385,-4.50679 3.34375,-7.5 0.4448,-0.55851 0.8309,-1.21519 1.0625,-1.9375 L 500,280 577.9375,462.25 c 1.3309,3.11169 4.8325,4.42016 7.875,2.9375 l 22.96875,12.96875 c 2.8065,1.58589 6.4204,0.5868 8.0625,-2.1875 l 81.6875,-137.9375 51.46875,0 0,-77.71875 -71.46875,0 c -3.0135,0 -5.44395,2.21461 -5.90625,5.09375 -0.2605,0.28858 -0.4824,0.55947 -0.6875,0.90625 L 602.375,384 517.90625,186.53125 c -0.4248,-0.99299 -1.05995,-1.84344 -1.84375,-2.4375 -0.2524,-2.29341 -1.87225,-4.34174 -4.21875,-5.09375 l -26.3125,-8.4375 c -3.1848,-1.02069 -6.5418,0.72136 -7.5625,3.90625 l -79.875,249.21875 -63.9375,-153.25 c -0.6362,-1.52469 -1.81425,-2.65723 -3.21875,-3.25 l 0,-0.875 c 0,-3.34445 -2.6556,-6 -6,-6 l -74.9375,0 0,77.71875 55.4375,0 L 386.625,532.5 c 0.9659,2.31491 3.24075,3.71075 5.59375,3.71875 z" />
      <glyph
         glyph-name="big-font"
         id="glyph4734"
         unicode="g"
         d="m 477.28129,850.40631 -256.25,-604.9375 c -18.8914,-43.53212 -33.2688,-75.55999 -43.125,-96.09375 -18.89131,-39.42534 -34.49222,-65.73328 -46.8125,-78.875 -8.21366,-8.21358 -17.2688,-14.75935 -27.125,-19.6875 -9.034931,-4.92815 -20.9344,-7.40625 -35.718748,-7.40625 l 0,-23.40621 243.937498,0 0,23.40621 c -23.81963,0 -41.07261,2.04946 -51.75,6.15625 -21.35547,8.21358 -32.03143,23.4171 -32.03125,45.59375 -1.8e-4,13.96299 3.30396,29.56382 9.875,46.8125 l 56.65625,144.15625 322.8125,0 50.5,-118.28125 c 8.21296,-19.71267 13.96396,-35.74231 17.25,-48.0625 4.10609,-12.32054 6.15564,-22.17028 6.15625,-29.5625 -6.1e-4,-20.53394 -8.6271,-34.08539 -25.875,-40.65625 -10.67826,-4.10679 -30.80665,-6.15625 -60.375,-6.15625 l 0,-23.40621 314.1875,0 0,23.40621 c -27.92703,0 -48.45282,6.14839 -61.59375,18.46875 -12.32115,13.14163 -28.7481,42.72264 -49.28125,88.71875 l -306.78125,699.8125 -24.65625,0 z m -19.71875,-174.96875 142.9375,-338.8125 -284.59375,0 141.65625,338.8125 z" />
      <glyph
         glyph-name="big-height"
         id="glyph4851"
         unicode="h"
         d="M 102.9375,870 C 101.31412,870 100,868.68588 100,867.0625 l 0,-44.125 C 100,821.31412 101.31412,820 102.9375,820 l 794.125,0 c 1.62338,0 2.9375,1.31412 2.9375,2.9375 l 0,44.125 c 0,1.62338 -1.31412,2.9375 -2.9375,2.9375 l -794.125,0 z m 0,-400 C 101.31412,470 100,468.68588 100,467.0625 l 0,-44.125 C 100,421.31412 101.31412,420 102.9375,420 l 794.125,0 c 1.62338,0 2.9375,1.31412 2.9375,2.9375 l 0,44.125 c 0,1.62338 -1.31412,2.9375 -2.9375,2.9375 l -794.125,0 z m 0,-400 C 101.31412,70 100,68.68588 100,67.0625 l 0,-44.125 C 100,21.3141 101.31412,20 102.9375,20 l 794.125,0 C 898.68588,20 900,21.3141 900,22.9375 l 0,44.125 C 900,68.68588 898.68588,70 897.0625,70 l -794.125,0 z" />
      <glyph
         glyph-name="small-height"
         id="glyph4853"
         unicode="i"
         d="M 102.9375,720 C 101.31412,720 100,718.68588 100,717.0625 l 0,-44.125 C 100,671.31412 101.31412,670 102.9375,670 l 794.125,0 c 1.62338,0 2.9375,1.31412 2.9375,2.9375 l 0,44.125 c 0,1.62338 -1.31412,2.9375 -2.9375,2.9375 l -794.125,0 z m 0,-250 C 101.31412,470 100,468.68588 100,467.0625 l 0,-44.125 C 100,421.31412 101.31412,420 102.9375,420 l 794.125,0 c 1.62338,0 2.9375,1.31412 2.9375,2.9375 l 0,44.125 c 0,1.62338 -1.31412,2.9375 -2.9375,2.9375 l -794.125,0 z m 0,-244 C 101.31412,226 100,224.68588 100,223.0625 l 0,-44.125 C 100,177.31412 101.31412,176 102.9375,176 l 794.125,0 c 1.62338,0 2.9375,1.31412 2.9375,2.9375 l 0,44.125 c 0,1.62338 -1.31412,2.9375 -2.9375,2.9375 l -794.125,0 z" />
      <glyph
         glyph-name="preview-md"
         id="glyph4940"
         unicode="j"
         d="m 203.125,958.5 c -33.24,0 -60,-26.76 -60,-60 l 0,-730 c 0,-33.24 26.76,-60 60,-60 l 486.09375,0 L 724,45.9375 c 14.4621,-26.0056 45.02115,-34.091 68.53125,-18.09375 23.5101,15.99723 30.80585,49.83814 16.34375,75.84375 l -2.71875,4.875 c 31.81912,1.57012 56.96875,27.71527 56.96875,59.9375 l 0,730 c 0,33.24 -26.76,60 -60,60 l -600,0 z m 52.9375,-75 494.125,0 c 27.3741,0 49.40625,-22.03213 49.40625,-49.40625 l 0,-601.1875 c 0,-22.7665 -15.2474,-41.81852 -36.125,-47.59375 L 730.5625,244.5 c -1.6228,2.91807 -3.47305,5.60503 -5.46875,8.0625 26.4041,28.10091 42.5625,65.92894 42.5625,107.53125 0,86.74257 -70.3199,157.0625 -157.0625,157.0625 -86.7425,0 -157.0625,-70.31993 -157.0625,-157.0625 0,-86.74256 70.32,-157.0625 157.0625,-157.0625 9.7332,0 19.2566,0.86793 28.5,2.5625 1.0939,-6.48816 3.27115,-12.86918 6.59375,-18.84375 l 1.8125,-3.25 -391.4375,0 c -27.3741,0 -49.40625,22.03213 -49.40625,49.40625 l 0,601.1875 c 0,27.37412 22.03215,49.40625 49.40625,49.40625 z m 7.84375,-63.1875 0,-223 64.71875,0 c 0.46014,42.44007 0.91466,84.84119 1.375,127.28125 22.00062,-26.34155 41.54938,-55.13142 66.5,-78.71875 21.03713,26.48962 41.89989,53.08703 63.15625,79.40625 0.46012,-42.67019 0.91467,-85.29856 1.375,-127.96875 l 64.78125,0 0,223 c -22.04732,-0.10958 -44.10893,-0.23416 -66.15625,-0.34375 -21.5833,-26.57758 -40.7429,-55.4461 -65.34375,-79.3125 -24.62273,24.06547 -43.90653,53.28232 -66.15625,79.65625 l -64.25,0 z m 375.96875,0 0,-111.53125 c -21.62759,-0.58889 -43.53377,1.51276 -64.9375,-1.59375 30.4303,-36.05571 61.49773,-72.39518 93.375,-107.4375 23.45496,3.98693 39.06873,43.03439 59.625,60.25 11.37813,17.58444 63.14084,55.9185 14.15625,48.75 -11.58987,1.57246 -28.91438,-2.73341 -37.34375,1.9375 l 0,109.625 -64.875,0 z M 610.59375,449.84375 c 49.5672,0 89.75,-40.18282 89.75,-89.75 0,-49.56717 -40.1828,-89.75 -89.75,-89.75 -49.5671,0 -89.75,40.18283 -89.75,89.75 0,49.56718 40.1829,89.75 89.75,89.75 z" />
      <glyph
         glyph-name="preview-html"
         id="glyph4942"
         unicode="k"
         d="m 202.5625,958 c -33.24,0 -60,-26.76 -60,-60 l 0,-730 c 0,-33.24 26.76,-60 60,-60 l 486.09375,0 34.78125,-62.5625 c 14.46211,-26.0056 45.02117,-34.091 68.53125,-18.09375 23.51008,15.99723 30.80586,49.83814 16.34375,75.84375 l -2.71875,4.875 c 31.81912,1.57012 56.96875,27.71527 56.96875,59.9375 l 0,730 c 0,33.24 -26.76,60 -60,60 l -600,0 z m 52.9375,-75 494.125,0 c 27.37412,0 49.40625,-22.03213 49.40625,-49.40625 l 0,-601.1875 c 0,-22.7665 -15.24741,-41.81852 -36.125,-47.59375 L 730,244 c -1.62279,2.91807 -3.47309,5.60503 -5.46875,8.0625 26.4041,28.10091 42.5625,65.92894 42.5625,107.53125 0,86.74257 -70.31994,157.0625 -157.0625,157.0625 -86.74257,0 -157.0625,-70.31993 -157.0625,-157.0625 0,-86.74256 70.31993,-157.0625 157.0625,-157.0625 9.7332,0 19.25652,0.86793 28.5,2.5625 1.0939,-6.48816 3.27119,-12.86918 6.59375,-18.84375 L 646.9375,183 255.5,183 c -27.37412,0 -49.40625,22.03213 -49.40625,49.40625 l 0,601.1875 C 206.09375,860.96787 228.12588,883 255.5,883 z m 188.09375,-61.125 c -8.53329,0 -17.05511,-2.2954 -23.59375,-6.84375 L 278.34375,716.5 c -7.48871,-5.20923 -10.65061,-12.23522 -9.5625,-19 -1.08348,-6.76178 2.07737,-13.76201 9.5625,-18.96875 L 420,580 c 13.07728,-9.09671 34.11022,-9.09671 47.1875,0 13.07728,9.09671 13.07728,23.74703 0,32.84375 l -121.75,84.65625 121.75,84.6875 c 13.07728,9.0967 13.07728,23.74703 0,32.84375 -6.53864,4.54835 -15.06047,6.84375 -23.59375,6.84375 z m 109.9375,0 c -8.52941,0 -17.05511,-2.29539 -23.59375,-6.84375 -13.07728,-9.09671 -13.07728,-23.74705 0,-32.84375 l 121.75,-84.65625 -121.75,-84.6875 c -13.07728,-9.09671 -13.07728,-23.74704 0,-32.84375 6.53864,-4.54835 15.06047,-6.8125 23.59375,-6.8125 8.53328,0 17.05511,2.26415 23.59375,6.8125 l 141.65625,98.53125 c 7.4887,5.20922 10.6506,12.23522 9.5625,19 1.08348,6.76179 -2.07738,13.76201 -9.5625,18.96875 L 577.125,815.03125 c -6.53864,4.54836 -15.06434,6.84375 -23.59375,6.84375 z m 56.5,-372.53125 c 49.56717,0 89.75,-40.18282 89.75,-89.75 0,-49.56717 -40.18283,-89.75 -89.75,-89.75 -49.56718,0 -89.75,40.18283 -89.75,89.75 0,49.56718 40.18282,89.75 89.75,89.75 z" />
      <glyph
         glyph-name="about"
         id="glyph4944"
         unicode="l"
         d="M 500,880 C 265.27898,880 75,689.72102 75,455 75,220.27898 265.27898,30 500,30 734.72102,30 925,220.27898 925,455 925,689.72102 734.72102,880 500,880 z M 481.9375,734.90625 c 46.90766,-5.5e-4 87.44695,-13.10668 121.65625,-39.28125 34.20874,-26.1756 51.31217,-60.64538 51.3125,-103.40625 -3.3e-4,-23.84306 -5.42813,-44.18625 -16.3125,-61.03125 -10.62585,-16.58654 -29.04393,-36.6668 -55.21875,-60.25 -25.39787,-23.32462 -42.99591,-42.61608 -52.84375,-57.90625 -9.5891,-15.03147 -14.40645,-33.18662 -14.40625,-54.4375 l 0,-9.34375 -106.125,0 0,21.78125 c -9e-5,33.1722 4.67016,59.09027 14,77.75 9.32963,18.6592 27.97939,41.33752 55.96875,68.03125 20.21426,19.43661 33.43623,33.67905 39.65625,42.75 6.47878,9.32936 9.71854,18.7857 9.71875,28.375 -2.1e-4,14.77167 -6.74266,26.44731 -20.21875,35 -13.47647,8.55182 -28.5077,12.81205 -45.09375,12.8125 -36.80076,-4.5e-4 -76.43541,-14.0958 -118.9375,-42.34375 l 0,110.375 c 54.16426,20.73222 99.78382,31.12445 136.84375,31.125 z m -21.40625,-427.25 c 19.95512,-1.2e-4 36.41685,-6.47964 49.375,-19.4375 12.95777,-12.95807 19.43729,-28.48391 19.4375,-46.625 -2.1e-4,-18.40036 -6.59557,-34.10455 -19.8125,-47.0625 -12.95815,-12.95797 -28.39941,-19.43749 -46.28125,-19.4375 -18.14129,1e-5 -33.66713,6.47953 -46.625,19.4375 -12.6989,12.95795 -19.06258,28.51505 -19.0625,46.65625 -8e-5,18.65941 6.62653,34.33234 19.84375,47.03125 13.21702,12.95786 27.57531,19.43738 43.125,19.4375 z" />
      <glyph
         glyph-name="wp-upload"
         id="glyph4946"
         unicode="m"
         d="m 492.23387,880.51391 c -233.61999,0 -423.00641,-189.38642 -423.00641,-423.00641 0,-233.61999 189.38642,-423.00644 423.00641,-423.00644 233.61999,0 423.00641,189.38645 423.00641,423.00644 0,233.61999 -189.38642,423.00641 -423.00641,423.00641 z m -1.2558,-42.06931 c 87.47449,0.55168 162.0947,-23.85996 231.99257,-75.64544 25.01004,-18.52924 27.94339,-23.62888 13.54943,-23.62888 -24.81048,0 -54.343,-36.25907 -54.46208,-66.85484 -0.0826,-21.23373 8.00514,-41.54126 34.27014,-85.98927 44.54237,-75.37811 44.49138,-104.09674 -0.52877,-254.16736 -17.34896,-57.8313 -32.32714,-102.73122 -33.2787,-99.77004 -0.95155,2.96123 -31.90822,94.73617 -68.80464,203.93536 l -67.08617,198.54865 18.73786,2.41245 c 30.62535,3.96312 35.73553,5.60572 38.30191,12.29362 1.34453,3.50372 0.75724,9.36426 -1.28884,13.02067 -3.32811,5.94744 -15.74615,6.66688 -117.94609,6.93995 l -114.24478,0.33047 -2.34636,-9.35241 c -3.50334,-13.95856 4.10929,-19.87543 28.94949,-22.43917 12.30114,-1.26959 23.06121,-2.96839 23.89326,-3.80045 3.4144,-3.41434 57.56853,-155.86835 57.56853,-162.06433 0,-3.69506 -17.31841,-58.85085 -38.46714,-122.57272 -21.14864,-63.72185 -39.64951,-117.21222 -41.14399,-118.87141 -1.49459,-1.65923 -33.50676,88.46795 -71.11795,200.30015 l -68.37502,203.3405 12.16143,2.44551 c 6.69567,1.33913 17.05737,2.41246 23.03403,2.41246 5.97665,0 14.00093,3.45521 17.81253,7.66699 5.70614,6.30518 6.08453,9.23021 2.18113,16.52369 -4.70701,8.79513 -5.20527,8.83477 -72.63813,5.98158 l -67.94541,-2.87513 7.43566,13.05372 c 11.67062,20.53907 68.72353,76.14379 97.29146,94.81291 63.07703,41.22075 121.85583,60.38785 194.81429,63.55011 5.94819,0.25781 11.84872,0.42588 17.68035,0.46266 z m 339.72702,-201.15937 11.26916,-23.95936 c 24.34845,-51.92072 29.82835,-81.14894 29.57739,-157.8012 -0.21139,-64.55551 -1.08045,-72.68381 -11.2361,-105.88381 -12.47985,-40.79819 -39.3701,-93.91895 -63.15353,-124.75384 -19.47543,-25.24956 -63.55588,-67.35196 -88.43478,-84.46906 -9.99564,-6.8772 -18.91833,-12.4919 -19.82843,-12.4919 -1.54778,0 30.43891,93.90163 105.02456,308.23284 33.02359,94.89744 42.64693,139.6536 38.76457,180.47171 l -1.98284,20.65462 z M 142.03082,605.03099 c 0.0813,0.0177 0.15597,0.008 0.23134,0 0.15559,-0.0176 0.30059,-0.0982 0.42961,-0.23134 1.84927,-1.90928 17.7344,-43.03575 35.2946,-91.37599 52.57688,-144.73513 139.54723,-382.9975 142.53333,-390.4878 4.30526,-10.7994 -1.51288,-8.6522 -36.02164,13.4503 C 159.33124,216.554 90.852,370.80303 114.83284,518.57906 c 5.3046,32.68833 22.07461,85.33581 27.19798,86.45193 z M 500,416 c 1.0717,0.0984 1.95532,-1.64059 3.07341,-4.65968 1.9895,-5.37196 27.62866,-75.38621 56.97367,-155.58704 29.34502,-80.20082 54.60876,-148.93032 56.11445,-152.74502 3.42022,-8.665 -8.35236,-13.6261 -50.03373,-21.1172 -39.40399,-7.0818 -66.91216,-8.5184 -105.98294,-5.552 -30.48998,2.3149 -73.79479,10.547 -73.79479,14.0451 0,1.3495 31.23581,92.7489 102.87649,300.99554 C 495.26452,408.93111 497.95402,415.81224 500,416 z" />
      <glyph
         glyph-name="delete"
         id="glyph4948"
         d="m 421,874 c -24.93,0 -45,-20.07 -45,-45 0,-3.61638 0.42052,-7.13458 1.21875,-10.5 l -286.875,0 C 82.40539,818.5 76,812.09461 76,804.15625 l 0,-37.8125 C 76,758.40539 82.40539,752 90.34375,752 L 141,752 141,80.40625 c 0,-2.85656 0.21136,-5.65827 0.59375,-8.40625 l 0,-4 c 0,-24.78421 17.81478,-44.75 39.9375,-44.75 l 1.125,0 C 188.43682,21.4066 194.59263,20.4063 201,20.4063 l 600,0 c 6.40737,0 12.56318,1.0003 18.34375,2.8437 l 1.125,0 c 22.12273,0 39.9375,19.96579 39.9375,44.75 l 0,4 C 860.78864,74.74798 861,77.54969 861,80.40625 L 861,752 l 50.65625,0 C 919.59461,752 926,758.40539 926,766.34375 l 0,37.8125 C 926,812.09461 919.59461,818.5 911.65625,818.5 l -286.875,0 C 625.57948,821.86542 626,825.38362 626,829 c 0,24.93 -20.07,45 -45,45 l -44.34375,0 -71.3125,0 L 421,874 z m -216.09375,-122 592.1875,0 c 0.23839,-1.96257 0.375,-3.97065 0.375,-6 l 0,-601.1875 c 0,-27.3741 -22.03215,-49.40625 -49.40625,-49.40625 l -494.125,0 c -27.3741,0 -49.40625,22.03215 -49.40625,49.40625 l 0,601.1875 c 0,2.02935 0.13661,4.03743 0.375,6 z m 112.1875,-96 c -4.66962,0 -8.4375,-3.76788 -8.4375,-8.4375 l 0,-483.125 c 0,-4.66962 3.76788,-8.4375 8.4375,-8.4375 l 21.625,0 c 4.66962,0 8.4375,3.76788 8.4375,8.4375 l 0,483.125 c 0,4.66962 -3.76788,8.4375 -8.4375,8.4375 l -21.625,0 z M 487.75,656 c -4.66962,0 -8.40625,-3.76788 -8.40625,-8.4375 l 0,-483.125 c 0,-4.66962 3.73663,-8.4375 8.40625,-8.4375 l 21.65625,0 c 4.66962,0 8.4375,3.76788 8.4375,8.4375 l 0,483.125 c 0,4.66962 -3.76788,8.4375 -8.4375,8.4375 L 487.75,656 z m 170.6875,0 C 653.76788,656 650,652.23212 650,647.5625 l 0,-483.125 C 650,159.76788 653.76788,156 658.4375,156 l 21.625,0 c 4.66962,0 8.4375,3.76788 8.4375,8.4375 l 0,483.125 c 0,4.66962 -3.76788,8.4375 -8.4375,8.4375 l -21.625,0 z"
         unicode="n" />
      <glyph
         glyph-name="image-insert"
         id="glyph4950"
         unicode="o"
         d="m 200,870 c -33.24,0 -60,-26.76 -60,-60 l 0,-730 c 0,-33.24 26.76,-60 60,-60 l 600,0 c 33.24,0 60,26.76 60,60 l 0,0.5 c 52.96706,23.15101 90,75.99774 90,137.5 0,61.50226 -37.03294,114.34899 -90,137.5 l 0,454.5 c 0,33.24 -26.76,60 -60,60 l -600,0 z m 52.9375,-75 494.125,0 c 27.37412,0 49.40625,-22.03213 49.40625,-49.40625 l 0,-377.65625 C 715.25628,366.06248 650,299.66309 650,218 650,167.08319 675.36845,122.1156 714.15625,95 L 252.9375,95 c -27.37412,0 -49.40625,22.03213 -49.40625,49.40625 l 0,601.1875 C 203.53125,772.96787 225.56338,795 252.9375,795 z M 362.03125,690.5625 c -13.7444,0 -24.8125,-10.06767 -24.8125,-22.5625 l 0,-11.28125 -24.8125,0 c -24.9897,0 -45.09375,-20.10409 -45.09375,-45.09375 l 0,-67.65625 217.125,0 c 10.0122,38.91437 45.30425,67.65625 87.34375,67.65625 42.0395,0 77.3628,-28.74188 87.375,-67.65625 l 70.5,0 0,67.65625 c 0,24.98966 -20.10415,45.09375 -45.09375,45.09375 L 450,656.71875 450,668 c 0,12.49483 -11.0682,22.5625 -24.8125,22.5625 l -63.15625,0 z m 209.75,-112.78125 c -31.1403,0 -56.375,-25.23463 -56.375,-56.375 0,-31.14036 25.2347,-56.40625 56.375,-56.40625 31.1404,0 56.40625,25.26589 56.40625,56.40625 0,31.14037 -25.26585,56.375 -56.40625,56.375 z m -304.46875,-78.9375 0,-90.21875 c 0,-24.98966 20.10405,-45.09375 45.09375,-45.09375 l 372.15625,0 c 24.9896,0 45.09375,20.10409 45.09375,45.09375 l 0,90.21875 -70.5,0 c -10.0122,-38.91438 -45.3355,-67.65625 -87.375,-67.65625 -42.0395,0 -77.33155,28.74187 -87.34375,67.65625 l -217.125,0 z m 548.03125,-131.625 c 1.25543,-0.12798 2.50399,-0.2787 3.75,-0.4375 -1.25121,0.15905 -2.48936,0.30948 -3.75,0.4375 z m -36.65625,-54.125 42.625,0 c 9.2735,0 16.71875,-6.75707 16.71875,-15.1875 l 0,-41.875 41.875,0 c 8.4304,0 15.1875,-7.44527 15.1875,-16.71875 l 0,-42.625 c 0,-9.27348 -6.7571,-16.71875 -15.1875,-16.71875 l -41.875,0 0,-41.875 c 0,-8.43043 -7.44525,-15.1875 -16.71875,-15.1875 l -42.625,0 c -9.2734,0 -16.71875,6.75707 -16.71875,15.1875 l 0,41.875 -41.875,0 c -8.4304,0 -15.1875,7.44527 -15.1875,16.71875 l 0,42.625 c 0,9.27348 6.7571,16.71875 15.1875,16.71875 l 41.875,0 0,41.875 c 0,8.43043 7.44535,15.1875 16.71875,15.1875 z m 2.21875,-243.875 c 1.25121,-0.15905 2.48936,-0.30948 3.75,-0.4375 -1.25391,0.1277 -2.50542,0.27906 -3.75,0.4375 z m 38.1875,0 c -1.24601,-0.1588 -2.49457,-0.30952 -3.75,-0.4375 1.26064,0.12802 2.49879,0.27845 3.75,0.4375 z M 796.125,68.0625 C 797.41156,68.0299 798.70558,68 800,68 c -1.29178,0 -2.59104,0.03 -3.875,0.0625 z" />
      <glyph
         glyph-name="small-font"
         id="glyph4952"
         unicode="p"
         d="M 472.28125,574.5625 300.875,169.90625 C 288.23902,140.7887 278.62381,119.39077 272.03125,105.65625 259.39532,79.28562 248.95948,61.66517 240.71875,52.875 235.22484,47.38114 229.15507,43.01507 222.5625,39.71875 c -6.04324,-3.29631 -13.98612,-4.9375 -23.875,-4.9375 l 0,-15.65625 163.15625,0 0,15.65625 c -15.93236,0 -27.48316,1.34682 -34.625,4.09375 -14.28414,5.49386 -21.40638,15.66659 -21.40625,30.5 -1.3e-4,9.3395 2.19854,19.77529 6.59375,31.3125 l 37.90625,96.4375 215.90625,0 L 600,118 c 5.49345,-13.18531 9.3333,-23.91558 11.53125,-32.15625 2.74646,-8.2409 4.12459,-14.80553 4.125,-19.75 -4.1e-4,-13.73464 -5.77581,-22.82367 -17.3125,-27.21875 -7.14242,-2.74693 -20.59747,-4.09375 -40.375,-4.09375 l 0,-15.65625 210.15625,0 0,15.65625 c -18.67969,0 -32.42911,4.10297 -41.21875,12.34375 -8.24131,8.79011 -19.20339,28.5781 -32.9375,59.34375 L 488.75,574.5625 l -16.46875,0 z m -13.21875,-117.03125 95.625,-226.625 -190.375,0 94.75,226.625 z" />
      <glyph
         glyph-name="edit"
         id="glyph3153"
         unicode="q"
         d="m 200,870 c -33.24,0 -60,-26.76 -60,-60 l 0,-730 c 0,-33.24 26.76,-60 60,-60 l 600,0 c 33.24,0 60,26.76 60,60 l 0,281.75 81.09375,74.65625 c 20.38612,18.77189 18.32408,53.80687 -4.625,78.53125 L 927.25,524.84375 C 908.02371,545.55718 880.43749,552.27686 860,542.875 L 860,810 c 0,33.24 -26.76,60 -60,60 l -600,0 z m 52.9375,-75 494.125,0 c 27.37412,0 49.40625,-22.03213 49.40625,-49.40625 l 0,-258.40625 -200.9375,-185.03125 c -1.38072,-1.27129 -2.63722,-2.61918 -3.8125,-4.03125 L 683.25,199.5 c 1.50546,1.05636 2.96296,2.22857 4.34375,3.5 l 108.875,100.25 0,-158.84375 C 796.46875,117.03215 774.43662,95 747.0625,95 l -494.125,0 c -27.37412,0 -49.40625,22.03215 -49.40625,49.40625 l 0,601.1875 C 203.53125,772.96787 225.56338,795 252.9375,795 z M 569.90625,282.40625 c -2.42856,-0.32472 -27.69456,-117.25118 -25.78125,-119.3125 1.91331,-2.06132 120.92225,13.86397 121.4375,16.25 0.51525,2.38603 -93.22769,103.38722 -95.65625,103.0625 z" />
      <glyph
         glyph-name="refresh"
         id="glyph3469"
         unicode="r"
         d="M 540,892 C 305.27898,892 115,701.72102 115,467 115,232.279 305.27898,42 540,42 774.72102,42 965,232.279 965,467 965,701.72102 774.72102,892 540,892 z M 549.1875,814 550,744.21875 C 695.08401,738.00207 814.86073,618.02799 818.40625,470.96875 818.86816,451.80993 817.33141,433.00996 814,414.78125 790.68012,287.18032 679.11195,187.29587 545,184.0625 391.7292,180.36721 261.78904,304.19796 258.09375,457.46875 c -0.70845,29.38459 3.21843,58.70967 11.625,86.875 l 102.3125,-30.5 c -5.18515,-17.37235 -7.62447,-35.68811 -7.1875,-53.8125 2.26141,-93.79766 83.79608,-171.48017 177.59375,-169.21875 93.79766,2.26141 171.48016,83.76483 169.21875,177.5625 C 709.52386,556.821 636.91832,630.94397 550,637.21875 L 549.1875,566.5 441.3125,627.15625 334.84375,690.28125 441.3125,753.375 549.1875,814 z" />
      <glyph
         glyph-name="close"
         id="glyph4047"
         unicode="s"
         d="M 500,888 C 265.27898,888 75,697.72102 75,463 75,228.27898 265.27898,38 500,38 734.72102,38 925,228.27898 925,463 925,697.72102 734.72102,888 500,888 z M 346.96875,689.9375 c 11.0632,0 22.14771,-4.21027 30.625,-12.6875 L 500,554.84375 622.40625,677.25 c 16.9545,16.95447 44.26426,16.95447 61.21875,0 l 30.625,-30.625 c 16.9545,-16.95446 16.9545,-44.26429 0,-61.21875 L 591.84375,463 714.25,340.59375 c 16.9545,-16.95447 16.9545,-44.26429 0,-61.21875 L 683.625,248.75 c -16.95449,-16.95446 -44.26425,-16.95446 -61.21875,0 L 500,371.15625 377.59375,248.75 c -16.9545,-16.95446 -44.26425,-16.95446 -61.21875,0 l -30.625,30.625 c -16.9545,16.95446 -16.9545,44.26428 0,61.21875 L 408.15625,463 285.75,585.40625 c -16.9545,16.95446 -16.9545,44.26429 0,61.21875 l 30.625,30.625 c 8.4772,8.47723 19.53047,12.6875 30.59375,12.6875 z" />
      <glyph
         glyph-name="logo"
         id="glyph3298"
         unicode="t"
         d="m 500.96875,889.96875 c -236.93016,0 -429,-192.06984 -429,-429 0,-236.93016 192.06984,-429 429,-429 107.47864,0 205.72582,39.53713 281,104.84375 l -91.4375,87 c -51.75074,-41.2021 -117.27191,-65.84375 -188.5625,-65.84375 -167.34228,0 -303,135.65772 -303,303 0,40.33029 7.88406,78.80585 22.1875,114 C 221.0498,575.90747 221,576.90581 221,578 c 0,40 -35.81139,134.18861 -20,150 18.05306,18.05306 109.41995,-4.63083 141.75,-9.21875 46.26758,28.6326 100.80982,45.1875 159.21875,45.1875 77.61516,0 148.39078,-29.19594 202,-77.1875 L 798.3125,770.1875 C 721.19875,844.35451 616.40991,889.96875 500.96875,889.96875 z M 854.4375,704.125 l -94.75,-83.78125 c 28.69166,-46.30073 45.28125,-100.90082 45.28125,-159.375 0,-64.7875 -20.36629,-124.80698 -55,-174.0625 l 91.4375,-87 c 55.54069,72.31802 88.5625,162.83041 88.5625,261.0625 0,90.28126 -27.90028,174.04663 -75.53125,243.15625 z M 500.96875,648.96875 c -103.82953,0 -188,-84.17047 -188,-188 0,-103.82953 84.17047,-188 188,-188 103.82953,0 188,84.17047 188,188 0,103.82953 -84.17047,188 -188,188 z" />
    </font>
</defs>
</svg>
